<svg xmlns="http://www.w3.org/2000/svg" width="297mm" height="367mm" viewBox="0 0 1052.4 1488.2">
  <title>
    201612_002
  </title>
  <desc>
    Portrait illustration of Barack Obama made with SVG (Scalable Vector Graphics) after analog ink drawing named 201612_001 by same author.
  </desc>
  <metadata>
    <rdf:RDF xmlns:rdf="http://www.w3.org/1999/02/22-rdf-syntax-ns#" xmlns:cc="http://creativecommons.org/ns#" xmlns:dc="http://purl.org/dc/elements/1.1/">
      <cc:Work>
        <dc:format>
          image/svg+xml
        </dc:format>
        <dc:type rdf:resource="http://purl.org/dc/dcmitype/StillImage"/>
        <dc:title>
          201612_002
        </dc:title>
        <dc:description>
          Portrait illustration of Barack Obama made with SVG (Scalable Vector Graphics) after analog ink drawing named 201612_001 by same author.
        </dc:description>
        <dc:creator>
          Takashi Saito
        </dc:creator>
        <dc:date>
          2016-12-23
        </dc:date>
        <cc:license rdf:resource="https://creativecommons.org/licenses/by/4.0/"/>
        <dc:source>
          <rdf:Description rdf:about="https://commons.wikimedia.org/wiki/File:Barack_Obama_201612001.png">
            <dc:format>
              image/png
            </dc:format>
            <dc:type rdf:resource="http://purl.org/dc/dcmitype/StillImage"/>
            <dc:title>
              201612_001
            </dc:title>
            <dc:description>
              Portrait illustration of Barack Obama
            </dc:description>
            <dc:creator>
              Takashi Saito
            </dc:creator>
            <dc:date>
              2016-12-11
            </dc:date>
            <cc:license rdf:resource="https://creativecommons.org/licenses/by/4.0/"/>
          </rdf:Description>
        </dc:source>
        <dc:source>
          <rdf:Description rdf:about="https://www.defense.gov/Media/Photo-Gallery?igphoto=2001294796">
            <dc:format>
              image/jpeg
            </dc:format>
            <dc:type rdf:resource="http://purl.org/dc/dcmitype/Image"/>
            <dc:title>
              Obama Honors Dempsey
            </dc:title>
            <dc:description>
              President Barack Obama delivers remarks at a ceremony honoring Army Gen. Martin E. Dempsey, 18th chairman of the Joint Chiefs of Staff, on Joint Base Myer-Henderson Hall, Arlington, Va., Sept. 25, 2015. The Chairman of the Joint Chiefs of Staff is the senior ranking member of the Armed Forces and principal military adviser to the President, Defense Secretary, and National Security Council Staff. DoD photo by Navy Petty Officer 2nd Class Dominique A. Pineiro
            </dc:description>
            <dc:creator>
              Petty Officer 2nd Class Dominique Pineiro
            </dc:creator>
            <dc:date>
              2015-09-25
            </dc:date>
            <dc:publisher>
              U.S. Department of Defense
            </dc:publisher>
            <dc:rights>
              United States government work (https://www.usa.gov/government-works)
            </dc:rights>
          </rdf:Description>
        </dc:source>
      </cc:Work>
    </rdf:RDF>
  </metadata>
  <g fill="none" stroke="#000" stroke-linecap="round" stroke-linejoin="round">
    <path stroke-width=".8" d="M447.5 120.4l-10 29M454 125.2l-6.8 24.8M463.8 126.5l-5 19M474 125.2l-3.7 10.5M486.3 127.2l-1.7 6.5M483 128.2l4 3.4M491.4 130l.7 10.5M497.6 134.4l1 4M504 141l-1 4.6M392.3 142l1.8 24M399.5 135l.7 25.6M406.6 127.2L408 150M412.8 126l3 20M421.3 125l3 12M431.5 123l2.7 5.2M387.2 156l-2.4 18.5M367.4 156.5v8.2M360.7 159l-.8 20.5M353.2 164.3l-1 22.2M352.8 200.4l7.2 3.4M354.5 193.6l5.8 6M358 189.5l3.7 3.8M362.7 186l2.4 1M367.5 178.6l.6 1.7M353.5 208l6.5 3.3M378 187l-4.4 33.2M373.6 193.6l8.8-3.4M371 201l9.7-3.3M369.5 209l9-4M369.5 216.4l6.5-2.7M370.2 225.3l4-3M396 153l-8.5 34M403.5 148.7l-7.8 37.6M412.7 143.6L406 182M418.2 150.7l-5 29.6M427.4 156.2l-3.4 19M443.8 158l-1.2 20.3M454.6 159l-1.7 16.6M465.2 163.3l2 6.5M480.2 165.7l-2.8 15.3M486.7 166l-2.4 21M493.5 172V188M499.6 180.7l.7 9.2M358.3 146l39-33.8M424.4 197.4l4 4M432 198.2l3 2.2M417.2 197.7l3 5M413 202.5l5 11.6M407 198.7l5.4 16M399.8 200l9.2 17.5M344.8 210.4l2-.4M451.6 206.6l31.2-29h-.6M460 211l38.2-32M468 217l43-34.6M474.4 227.5l36-31.2M482.3 236l24.5-23.7M487.7 248l32-23.4M485.6 264l48.3-33.3M495.2 270.6l45.6-32.5M506 275l40.6-30.6M529 268.2l30-18.3M547 266.5l10.8-5.8M557.2 202l4.7 7.3M554.4 211.3l11 2.8M551.7 222.6l15 .3M559 229l11 1M560.6 252.5l13.2-5M554.8 248.4l16.3-6M548 243.3l18-6.4M542.5 235.5l18-4M539 226.3h10M543 194.6l6.3 13.3M545 190l7 11M549.3 188l4 3M554.2 184.5l3 2.3M514.5 160l4.2.6M510.8 163.3l16.8 1M510.5 175.6l17-1M516.6 185l13.7-1.6M521 193.6l11.7-.3M526.5 199.4l6 .3M517.3 152.4l-6.8 52.4M521.4 154.5l-5 56.4M524.5 158l-2 63M529.6 175.2L531 227M535.7 186l2 43M543.2 203l1 27.4M522.4 149.3l22.2 32.3M528 145.6l28.2 33.7M538 145l24.6 22M544.2 142.2l24.2 16.3M554.4 140.5l19.4 10.2M568.7 135.7l12.2 8.6M550.3 147.3l22.2-5.8M548.3 155l25-8.4M328.6 225.4l7.3-11M337.5 229.6l6.2-.7M338 224.5l6.6-1M340 221l6.6-2M341.7 217l6-1M357.2 202l-3.2 25M358.3 209.5L357 229M349.4 231l20.6-16.4M357 233.4l17.4-15.7M359.2 237.3l18-15.5M362.3 242l18-16.4M373 239l13.2-11M374.6 242l15-11M373.3 231.4l11.5-5M375.5 221l1.8 6M382 224.3l2 11.7M389 230l-1 9.6M467.6 179l-24.3 22M445 197.3l-2 3.5M437.3 201l-.5.7M415.4 739l5.4 32.4M411.6 742l6.7.3M410 745.7l8.3 2.4M413.3 753l7 2.6M415.8 759.3l4 3M416.2 769.3l4 2.5M415.8 779.6l3 2M418.7 791.7l1.2 2.5M434.8 706l20.4-25.4M430.7 714.6l25.3-25.3M425.3 728.7l32.8-32.4M434.8 726l21.2-19.3M442.3 730.7l15-16M515 722.4l35-27.3M518.2 730l40.2-30.4M528 731.6l35-26.2M537.2 731.6l31-21.2M544 734l30.5-20.3M553.4 737l22.4-13.3M564.6 738.2l17-8.3M576.6 738.2l8.7-5.4M480.4 582.3l3 31M491.2 573l5 59.5M501.6 572.4l6.2 67.5M511 574l6.4 61.4M523.5 576l1.8 45M533.8 576.5l2 23M488.6 514.6l5 44.6M501.5 518.4l8.5 56.3M513.8 519l9.4 62.2M525.6 519l9.3 53M536 509l7.4 51.4M548.4 486.5l-3.8 56.6M560 472l-10 108.5M572.5 460.7L559 593.2M588 448l-14.6 143.3M599.7 436l-16.2 152M612.6 433L597 576.4M622.3 432l-12.6 116M633.7 419l-6 61M317.5 480.3l17-23.4M317.7 492.6l26.7-35M327.4 495.3l35.2-43M338 496l28.7-34.7M356 484.4l27.4-27.8M356 497l27.4-31M319.2 442.2l11 9M318.3 433l9.7 11M330.6 445.2l3 3M336 416l13-10M346.2 415l14-14.7M352.3 414l14-11.3M363.2 413.5l13.8-13.2M371.4 412.3l12-10.2M309.8 405.3l9.7-2.6M312.8 410l8.2-6M315 413.2l8-8.8M316.3 415.3l1-1.5M350 368.7l12.3 11.4M357.3 369l10.3 14M365.2 369.2l8.8 14M374.3 367.2l-1.7 13.8M380.8 367l-2.7 18.7M385.5 370l-3 25M390.7 371.6L386 398M397 370.4l-5 30.8M403.3 373.3l-5.2 28.2M408 379.2l-3.8 28.4M411 385.7l-2.4 23M412 396.5l-2 15.8M326.8 355.2l10.6-8.2M325 362.2l8-7.6M324.2 367.5l9-6M326.2 373l3-4.6M319.8 394l6.2 3.7M313.3 359l8.8-6M312.8 366.6l7-7M312 372l7.5-8.3M310 377l4.5-4M307.2 322.3l8.8-3.2M308.7 329.7l8.8-3.3M313.6 334.7l6.2-1.8M316.6 317.4l7.3-7.4M318.3 324l12-8.4M323 326.2l8.8-7M326.2 332.6l8.8-9.4M327.4 336.4l9-8M329 341l11-9.3M333.3 344l10.5-10M335.6 346.7l9.4-9.4M341.5 347l12-10.3M346 346.7l6.3-5.6M331.5 312l.6 13.3M336.2 311.2l2 16.7M341.2 317l4.4 12.7M348.8 322.6l2.7 9.4M354.7 322.6l1.7 9M358.5 324l2.6 20M363.8 326l2.6 21.3M367.3 326.4l3.2 21M370.8 327l4.7 22.3M377 326.4l3.5 21.4M382.8 328.2l2.4 15.8M340 350.2l8 27.8M343.2 347l8.8 27.5M347 341.7l9 28.7M353.2 342l4.7 27M357.3 342l7.5 34.7M364.2 348.7L370 369M369.6 347.5l6.2 22.8M377.8 344.6l5.6 25.7M382.6 341l5.2 15M387.4 338.6l4.8 9.7M392 312l.6 20.4M394.8 320l1.3 22.5M399.4 329.3l1.7 18.2M403.8 337.5l2 20.6M408.5 345l1.3 19.5M412.7 354.5l.8 20M418 365.5l-.4 12.7M400.2 309l5.4 2.8M401.3 314.5l3.3.7M400.6 317l1.7 2.3M367 316l7-7M373.5 318.7l8-5M375.2 324l7-4M381 328.2l3.3-4M382.2 331l2-2M347 294.6l5 15.6M354.2 299.2L358 317M360.6 300.6l3.6 16.4M366.2 302l3 17.3M371 304.2l5.4 22.8M377.8 307.3l4.4 22.8M382 304.6l6.6 24.7M353.8 296l9.5 5M358.8 291l5.6 8.6M347.6 286.6l11 25.2M353.8 285l5.4 19.4M355.7 282.6l4.3 7.3M358.6 282l6.4 9M360.2 277l1.5 1.7M321.3 305.6l8.7 1.3M326.4 299l7 .2M333.3 291h4.5M338 285l2.7.7M313.6 300.2L348 269M329.3 244l-.3 30M334 242.6l-1.3 27.6M336.6 243.2l2.7 24M342.4 245l.6 20M347.4 243.2l1.6 20.3M351.7 248.4l2 11.2M372.3 257l13.8 28M370.2 258.2l12.4 30.4M366.5 263l9.7 30.6M408.3 299l6-6.8M407.5 307.3l9-6.2M411.6 311.6l6.3-5M415.2 320.5l3-4.7M419 304.2l21-14M427.6 307l13-8.6M431.7 312l8-4.3M437.8 315.4l3.7-2M454 286.6l5.5-2.5M457.2 292l5.8-3.8M460.3 294l6.7-2.3M465.5 297.5l2.3-.6M469.5 300.6l3.5-1.2M427 278.5l9.5-7.7M434 279.7l6.7-6.8M442.3 278.7l6.4-5M397.7 278l10.6-15.3M403.8 282.2l11.2-14M404.8 288.4L421 269M408 292.2l29-32.2M419 286.6l7.6-8M420 294.4l7.8-7.4M408.7 271.2l6.5-6.6M412 275.4l13-14.3M421.6 252.4l9-5.6M426.4 257.3l13-9M433.4 257.5l11.2-9M435.5 263.3l14-12M445.4 261.7l12-9.6M450.4 262.3l10-6.4M457 263.5l18.3-14M462 265.2l21-16.8M465.5 268.3l22.2-14.7M471.3 271.6l20.3-15.7M475.5 276l19.5-15M483 277l14.4-11.8M467.6 265.4l.4 12.2M470.5 265l5 18.2M475.5 266.7l4.7 20M482.3 270.2l5 20.5M489.4 277L491 287M433.6 266h-.2M433.6 265.6l1.5 15M441.7 235.2l2.5 44.7M448.5 238l1.7 43M455 239.7l.4 38M460.8 244.3l1.4 37M467.4 242.2l-1.5 24.3M456.8 271l10.2-5.4M460.6 274l13.4-6M467 278l11.8-7.6M476 279l8-3M418.7 234.5l-.8 20M426.4 232.7l-1.3 24M433.2 233l-.6 27.2M426 307l28 57.3M435 307.3l30.3 61M447.7 313.5l26.7 46.6M457.2 317.6l23.2 34.7M468.4 322.6l16.6 22.8M484.2 320l7.6 13.6M497.7 319l2.6 2.4M496.4 296.3l13 13M505.5 290l6 6.7M419.5 349l9.3 38.5M428.8 351l10.4 64M438 354l11.2 68M447.5 355.4l11 66M458.3 341.7l10.7 73M433 422.3l24.6 22.8M434.4 412l38.2 35M447.3 403l47.2 53.3M452.7 387.7l49.3 55.8M452.3 361l63.2 78M461.4 349.2l62 85M470 343l58 76.6M478.8 331l50.8 68M488 318.5l45 60.5M490.8 308.5l35 47M523 370l-7 45M535.6 367.2l-6.7 65M546.2 362.4l-6 68.4M555 359.5l-3 82.4M563 363.5l-.5 75M572.5 362l-1 74M580 373.2l-.7 44M542.2 450.7l35.2-40M510.5 471l58-64M484.8 477.7l66.5-67M473.8 478l58.3-62.7M456.6 481.4l52-57.4M432.2 494.2l55.7-66.5M416 492l43.7-48M403.6 488l37.3-41M397.7 479l32-33.3M388.6 472.7l20.8-17.6M588.6 365.3l6.5-2.3M589.7 359.7l6.2-1M595.3 351.6l5.4-.2M595 348l7 1.4M605.4 344l3 .2M606 340h2M612 325.3l9 7.3M615.4 321.6l12.4 9M622.6 317l8.3 5M630.3 314.3l4.8 1.3M621.6 340l15-7.6M616.6 352l20.4-15M606.5 368l32.5-27M616.8 365l28.6-22M625.7 367.6l16.8-12.2M637.3 364.5l8.3-6M638 370.3l9-7.5M643 370.7l-3 5.8M652.7 362l8-.4M653 355.6l5-.2M654 349.6l4-.2M655.2 344.2l2-2.5M611.6 378.4l4.4 1.6M618 378.6l3.4.4M618.3 382.5h2.3M624.5 378.6v1.6M601.3 385h8l6.3 1M601 393.7l11.5-1M604 401l5.6.4M601.5 377l4.6 8M604.2 374.2l6.2 10.4M642 317.4l10.5-6.8M645.2 324l15.2-12M646.7 329.7l16-9.4M650 337l11.8-6.3M667.8 303l8.5-2.4M665.5 312.3L684 303M669.5 317.4l16.6-9M671 324l17.8-9M674 331.3l14.5-8.5M672.4 341.3l18.2-9M671 352l17.8-9.7M669.5 362.2l16.4-9M670.3 370l14.3-7.6M589.5 324l14.5-9M585 334.4l16.3-7.6M584 343.6l14.8-9M586 353.3l6.8-6.8M591.8 268.5l12.6 27.8M602.5 265.4l9.4 25.3M611.2 262l13.5 28M614.3 248.4l15.4 36.3M623.5 250.3l11.2 22.8M632.8 245.7l8.5 18.7M636 223.5l-4.7 10.2M634.4 235l27.4-18M631.3 247.4l29.3-20.5M632.4 256.3l30-22.2M626.8 269l31.5-20.6M629 277.2l31.4-20M636.5 283l22.2-14M643 289.7l16.5-13.5M504 327.6l39.7-32M503.5 340.4l62.3-46.6M510.3 346l73.2-53.8M515.3 361.6l72-60.7M530.2 363l58.2-48M535.2 373l56.3-48.3M547 371.7l38-32M547.6 386.7l36.7-31.7M550 401.2l33.3-29.7M549.7 415.3l32-29.5M566 408l14-11M596 186l22-17M600.2 190.6l24.3-14.5M605.2 200.3l26.8-20M611.2 208.6L647 185M624.5 207l31-17.4M648.3 175.3l18.3-9.4M652 182l20.2-9M650.4 193.7L676 180M659.5 199.7l31-17M657.5 211l46.4-23.7M669 216l39.7-20.6M677 221l36.2-19M684.8 226.4l39.2-21M685.6 235l39-23.3M706.4 189.6l11-3.6M710.5 195.6l7.3-3.6M716.3 201.4l7.3-3.6M687.5 136.7l8.3.8M692 142l7.5 3M701 156l11.6 5.4M705 166.3l5.3 2M594.2 86l20.6-3.4M599.8 97.5l29-10.5M604 107l36.5-14.7M613.3 112.7L647.7 98M622.8 114.7l25.3-11.2M634.4 119.3l19-9.8M590.5 129.4l21.6 4.2M587.6 140l22.2 1.5M585.7 148.5l15.6.8M569.6 77l15.5 4M547.8 137.7l26-4.5M504 112.7l25-20M513 112.3L531 95M511.5 117.2l22.6-10M522 119.7l13.4-9.3M528 122l14-8.5M535.2 107.3l7.4-9.6M535.8 111l7-6.6M539.5 116l6.7-8M425.3 112.7l24-5.4M434 114l14.3-3.8M485.2 82l20-15M491 84.7L515 65M501.8 83l21.6-17.6M511.6 82.6l16-14.7M459.3 69.5l4 17.7M467.8 67.5l3.7 16M475.5 69l3.3 11M482.3 69.3l2.5 8.5M489.8 66.2l1.2 8.5M450.4 82l8.7-11.4M437 91.3l11.7-8.5M440.2 97.5l13-13.2M427.8 88.6l14.3-6.4M422.4 82.4L426 89M416.8 84.3l.8 5.4M416.4 84.7L404.8 97M399.4 97.3l-.8 1.7M401.7 98l-4.8 10.3M395.3 110.4l8.3-9.6M394.8 108.7l.5 6.7M336.6 213.4l10-31M349.2 157.6l-3.3 21.8M348.8 160.7l8-14.5M372.6 254l24.7-24.7M370.7 264l31.5-29.7M377.2 266.5l27.3-27.4M377.7 276l32.2-34.6M383.7 276.5l28.3-28.3M387.8 278.2l25-25.6M421.4 269.4l9.8-8.5M661 301l8.4-2"/>
    <path stroke-width="1.3" d="M366.5 346l-3 4M372.7 345.2l-2 4.6M375.6 343v7.6M380 342l.5 5.3M384 339.4l.7 5M387.2 338l.8 2.7M409 363l9.3 13M420.3 410.3l1.7-.8M422 405l4-2M423.7 399l1.6-.3M344 218l-.8 8.7M418.7 279.7l13.2.4M425.3 276.4l6.6 3.7M433.6 274.3l5.8 5.4M442.3 275.2l7.5 5M449.4 277.2l5 2M455.6 276.4l3.3 2M425.3 264l2.5 9M431 264l2.2 3.7M435.3 261.5l.4 2M397 267.3l6.3-6.2M376.4 259.4L388 282M377.6 256l9.6 11.7M383.4 255.7l5.8 5M386.8 252.4l2 .8M377.6 234.5v-8.3M439 250.7l15.3 3.3M420 248.2l17 1.7M396.7 271l7.5 1.7M398.8 278l6.2-1.2M401.7 282.6l5-1.6M403.8 285.5l5-.4M406.7 291l2 .7M361 341l4.2 7M366.5 340.2l7 7.5M371.4 338l5.8 4M378 335.3l4.2 5.8M381.4 335l5.8 3M386 333l2.8 1M339.5 350l2.5-2.3M337.8 352.7l11.2-5.4M342.4 356l11.6-5M343.7 361l12-6.7M347.8 364.3l6.6-3M347.4 370l3.3-.3M317.5 336.5l4.2 10.8M325.8 403l6.2-.5M332.3 402l13.4-10M372.3 412l6.2 11.6M376.8 404l8 20.8M381.4 402.4l10.3 21.6M389.2 401.6l6.7 17M396 405.3l3.6 11.2M371.4 366l11.2 20.7M379.3 368l10.8 23M389.2 376.7l9.2 16.6M396.7 376.3l7.5 19.5M403.3 379.2l8.3 18.7M343.2 416.5L357 433M352.4 418.2l6.2 8.3M359.4 422.3l2 7M357 421.4l9.5 8.8M358.2 420l3.3.2M362.7 417.3l8.7 8.7M364.8 415l7 5.7M371.4 419.4l9.6 4.6M376 417.3l4 3M336.6 414l10 16 3.7 5.6M323.3 428.5l2 9.6M325.8 433l6.2 5.5M329 429l10.5 10.7M330.4 413.6L345 439M321.3 449l5.4 7.3M350.7 462.5l2 .4M473.8 267.7l1.3 10.8M478.8 267.3l2.5 9M483.3 265.6L487 276M490 268.5l3.3 7.5M496.6 270.2l1.3 5M398.5 233l-4.7 13M406.4 229l-8 19.6M409.5 227.5l-5.3 24.6M414.2 237.3l-5 19.8M420.2 276.5l2 5.4M425.3 275.7l2 6M428.3 275l3.5 6.6M433.7 274l2 7M438 273l3.3 8.5M443.2 274.7l1.2 5M425.7 449.7l4.6 12.4M351 462.7l3 3.8M404.2 391.6l14-7.6M405.4 403l17-12M406.2 411.5l18-13.2M408 416.5l14.4-9.7M408.5 422l14.5-9M411.8 427.3l14.3-7M417.2 431.2l6.2-1.4M419.5 382.5l7-3M421.8 387.7l3.5-2.5M423.7 394.7l4.5-3.5M423.2 401.4l5.6-2M422.6 407l3.8-1.5M421.2 444.3l12 13.7M425.7 439.3l18.7 16.2M432.8 435.2L453 459M445.2 438.5l13.3 15.3M456 439l8 10.3M318.2 433l3 23.5M324.6 432.7l5.6 31M329 433.3l7 32.6M334.3 434.5l7.5 29.7M340.5 431.6l9.2 30M346.6 437l12 31M354.2 439.7l11.6 30M364.2 441.4l11 23.6M373.3 438.3l11 25.3M384 442.4l8.6 19.7M391.3 442l9.3 22.2M400.2 444.5l6.7 18M410.2 444.5l7 20M417.4 443.2L425 465M412.7 409l8.3 35M419.7 417.3l8.7 34M427.4 421l10.8 34.5M336.6 478.3l5 26M339.7 471.6L348 487M342.8 465.6l5.8 15.6M345.7 463l6.2 10.5M333 409.5l1.4 5.6M337.6 404.2l2 8.6M341.6 402l1.6 5.2M347.8 399l5.8 15M353 397.4l6 12M364.4 403.7l-1 4.5M421.2 411.5l3-1M542.6 696.7L557 700M539 704.2h21.5M535.2 713.3l35.2-3.7M556.7 716l13.3.6M446.5 688l8.2-1.6M439.4 695l17.8-.7M435.7 704.2l22.4-3M438.6 712l16.6-1.6M539.7 613l7 1.7M546.8 607.2l5.8 2M555.5 603.5l4 .8M562 594.3l6 2.5M568.7 591.4l4.6 2M471.5 660.2l19.7-15.3M484.6 645l7.5 3M614.3 552.5l12-14M632.3 518.4l-7.2 18.3M635 506l6.3 10M635.5 476l4-4.4M633 483.7l5.4-3.3M632.6 493.6l2-3.3M380.5 306.7l6.3-1.7M385.5 312.5l5-1.7M389.2 321.2l8.3-3.3M391 327.4l11.5-4.6M395 333.6l8-3.7M400 340.7l7-5M403.3 346.5l5.8-2M329 317h6.4M333.7 321l9.5-2.3M337 325.7l9.6-3.7M339.5 328.2l10.4-4M347.4 330.3l4.5-2.5M307.2 312.5l-1.3 7M310.5 314.5v14M313.8 316l5 22M306.8 328.2l4.5-.4M306.3 334l6.7-2M306.3 343l8.3-4.4M310.5 348l6.6-5.3M315.5 351l4.5-6M306.3 311l6.7-9.3M411.2 267l5.8 13M417.4 265.6l5 16.2M422.8 267.3l3.3 12.4M648 298l1.6 1.2M650 299.2l19-1.7M650.4 297l6.2 5M662.4 297.5l10.4 3.4M672.8 303.3l5.4 2M678.6 308.7l3 1.3M621.4 342l-.4 6.5M614 384l2.4 2.7M609.8 388.7l3 1.3M626.8 377l11.6 2.6M637.6 376l9.5 2M646.3 371.7l5 1.3M651.2 367.2l4.6.4M657 361h3.4M544.7 132.6l22.8-12.5M550.5 136.7l19.2-11.4M534 125.5l13.2-9M541.8 127.6l7.5-6.7M429.5 81.2l6.6-.5 2 5.8M441.5 83.2l4 9.6M619 393.7l17 6.4M628 388.3l16.6 7M644.2 388l8.7 4.7M650.8 386.3l5.8 2.6M658 384.4l1.7.4M656.8 379l6 3.5M662.2 374.6l5.6 3M667.2 370.7l2.7 1.5M672.2 363.7l1.4.6M687.7 319.3l1 1.2M687 325l4.2 1.6M687.5 331l3.5 1M685.2 335.3l5.4 1.2M686 340l4.4 2.5M684.8 349l4.2 1M684.2 356.2l3.7.8M578.3 321l1.8 13M581.4 311.6l8.3 16.8M589 307.5l7.3 11.2M596.7 302l5 10M601.7 294.6l5 9.2M609.8 290.7l3 11.2M615.4 287.4l4.5 14.3M319.5 482.6l2.6 1M545.3 136l7-9M731.7 271.4l-.6 3M476.6 652h11.7"/>
    <path stroke-width="2.1" d="M322 417.2l8.2 15.6M329.5 420l6 10M336.2 419.3l3.4 6.7M343 418.6l1.3 3.4M317.3 418.5l6 16.6M310.6 399l4.7-21 6 1.4M313.3 389l9.5-7M311.3 403l11.2-13.6M322 410.5l4.8-9.5M327.4 379.5l6 18.7M332 377.7l7 19.6M339.2 377l5 17.6M345.7 377.4l8 19.6M354.5 384.2L360 397M360.8 382.7l1.8 11.6M367.5 387l2.5 19M360.6 397l1.3 10M374 391l3.4 17M378.8 391.6l3.4 15.5M383.5 395.6l4.7 13M391 399.7l1.3 8M397 403.7v4M405.8 405l3.4 13M425 399.2l-2.4 11M419.3 376l6.7 22.3M317.3 340.3l4.8 3.3M367.3 349l8-.6 12.3-10.2M388.4 320l.2 18.6M330.2 381l29 5.2 16.2 6.7M348.4 220l1.3 17.6M340.3 250.5l10.8-18.3M345 253.2l4-11.5M349.7 258l4.8-15.6M355.8 256.5l3.4-12M355.2 230.2l-.7 4.7M330.2 260l16.2-4M320.7 269.4l7.4-8M380.8 215.4l-2 10.8M385.5 212l2 18.2M392.3 211.3l.7 14.2M399 212.7l2.7 12M407.8 213.3v16.2M396.3 229l6.8-8M414 214l-1.5 18.2M418.6 217.4l.7 14.2M424.7 216l13.5 19M435.5 218l16.2 23M454.4 229.5L459 245M461.8 235l2.7 18.2M468.6 241.7l2.7 12.8M475.3 245.7l-2.7 12.2M482 250.5l-4 9.4M484 254l-2.6 7.3M455 254.5l10.2 6M393.6 233.6l13 24.3M399 228.2l13 29.7M404.4 227.5l11.5 27.7M410.5 226.2l4.7 13.5M414.6 223.5l4 13.5M407.8 260l3.4 6M312.6 330l4 12.3M314 347l6.7 2.7M311.3 340.3l2 6M338.3 329l27 3.2M326.8 268.7l10.8 1.3M397 399l6 15M317.2 493.5l11.6 23.7M320.4 487.6l17 32.2M328.2 487.5l19.5 35.7M334.2 484l21 32.5M341 484l31.7 46M358 491l24.2 37.6M374 495l19.6 31M382.8 489l33.8 39M400.4 490.2l30.4 37.8M412 486l31.6 40M424.7 485l33 37.6M441.6 475.3l35 39.2M459 473.3l32 39.8M472 470l38.4 46M484 466l38.6 52.5M495.6 461l37 51.4M510.4 453l30.4 45.3M519.2 449l31.8 39M530.7 445l29.7 37.7M543.5 440.2l24.3 28.3M553 431.4l23.3 28.7M561 424.7l23.7 31M572 415.2l20.5 32.8M574.6 407l22.4 30M582 396.3l19.4 31.7M581.3 388.2l7.5 2.7M584.7 381.4l2.7 1.4M584 377.4l4.8 10M587.4 373.3l4-6M416 487l.6 35.6M428 484l3.4 34.5M438.2 481.4l4.7 41.2M446.3 478l8 42M459.8 480.7l6.8 48M469.3 483.4l6 43.2M477.4 479.4l6 48M490.2 478.7L493 528M500.3 480l4 50M512.5 489.5l2 37.8M526.6 497.6l-1.3 25.6M478 529.3l10.2 18.2M393 530.7l35 52.6M401.7 532l39.2 63M414.6 530l45.2 75M430.8 536.7l49 84.3M438.2 534.7l61.4 97.2M449.7 532.7l54.7 83.7M468.6 537.4L509 595M493.6 551l20.2 27.6M488.8 568.5l2-14.2M422.7 576.6l12.8 10.8M443 595.5l46.5 38.5M491.5 634l4 8.7M516.5 576.6l4-8.8M497 645.4l4-4M513 605l13-29.8M526 606.3l19.6-35.8M538 612.4l15-34.5M553.7 605l7.4-17.6M493 638.7l6.6-.7M409.8 518.5l-5.4 23.6M624 394.3l3.3 5.4M633.3 388.2l2 8M640 389.6l2 2.7M646.8 388.2l1.4 1.4M651.6 385.5l.6 2.7M605 361.2l-6 21.6M609.7 364l-2.7 16M604.3 361.2l14.2-8M616.8 355l-1.7 12.3M624 356.5l-5 15.4M627.3 363.2l-.7 3.4M632 351l12.8-11.4M632 355l7.4-5.3M636.7 360.5l4-4M645.5 311.2l10.8-2.7M644.8 316l9.5 5.4M644.5 313.6l9 1M673.2 320l5 6M673.2 331.5l6.7 6.8M673.2 340.3l5.7 4.4M672.5 347.7l3.4 4.4M674.5 357l1.3-.5M655.6 285l29 4.6M611 304l24.4-5.3M624 297.4l19.5-6M643 276.4l-3 16M648 273.7l-.5 17M659 272l-4.7 16.3M574.6 245l-7.4 35M581.3 246.4L576 279M586 252l-3.3 22M592.8 247v19.7M598.2 243l4 16.2M607 242.4l3.4 23.6M619.8 252.5v8.8M662.4 281.5l10 6.8M667.5 206.4l3.5 79M660.3 193.7l3.3 90M649 196l11.7 82M661.7 262.6l38.5-6.7M666.4 277l31.7-9M667.8 283.5l33-5.4M682.6 290.3l20.3-4M706.3 279.6l1.3 43M690.7 242.4l36.4-24.7M688.7 256.5l41-27.3M694 261.3l34-25.3M696 268l34.6-23.6M697 276l30.2-20.5M696.8 283l28.4-17M695.4 304.5l14.2-15M698 317.3l9.6-7.4M730.6 265l3.3 1.7M729.8 251.3l5.7 4M727.7 238.3h9.6M727.8 226l8-.3M724.4 216l7.4-.7M717 200l8.8 7.2M702.2 187.7l15 15.5M703 204.5l17.4 11M704 215.4l15.8 10M706 226.5l15 6.4M710 236.3l11.5 5.8M712.7 248.5l9 4.3M669.8 185.6l30.4 38M681.3 185l21 27M688 179.6l12.3 16M696 176.2l9 8.8M664.7 178.4l13.7 1.8M665.7 187l15 .7M672.5 193.7H686M680.6 202.5l7.4-6.7M622 240.3l15.4-5.4-5.4 10.7M643.5 240.3l-4.8 11.5 8-5.5-2.6 8.8M569.2 165.4l-2.7 34.4M575.3 164.7l-1.4 46M583.4 175l-4 46M589.4 181l-2 43M597 183l-1.5 44.5M601.6 198l.7 27.5M608.3 181.6L601 212M619.2 187l-8.8 25M630 189l-8.8 28.4M638 195l-8.7 19.7M648 194.3l-8 20.2M658.3 194.4l-7.4 15M667.8 196l-6 12.6M594.8 210l29-11.5M594.8 223.5l32.5-19.6M601.6 227.5l25.7-16.2M605.6 235l21-17M613 240.3l16.3-12M565 182.3l11-16.2M569.2 195l14.2-21M576.6 202L590 180M584 209.3l10.2-22.3M589.4 217.4l12.2-27.7M723 250l-18 44.3M730 256.5L705.5 304M728.5 272l-24.3 54M730 287l-23 49.4M696 187.3l15.6-7.2M685.8 182l22-9.8M673.7 169l30-13M663.4 166.7l22.8-9M650.5 162l39.3-14M641.4 156l41.7-15M637.4 149.2l41.8-18.2M621.2 137.7l57.4-13.5M682.7 157.7l18-9M658 122.5l14.3.4M651.5 116l19 2M640.6 109.3L662 112M634 98.2l21.4 4.5M634.7 191l12.8-8M628.6 184.3l17.6-9.5M623.2 179.6l18.2-13.5M616.5 171.5l23-11.5M613 167.4l30-15.5M619.8 154l19-9.5M615 146.5l19.7-10M607 135.7h22.3M604.8 127.2l27 2.4M597 119.5l31.8-.8M587.4 106l34.3 4.7M583.4 96l37 6M584 85l31 7M553 111.4l14.8-8M560.4 114l10-4.7M567 117.7l8.3-4.3M578 114.7l14.8-4.7M581.4 119.7l12.8-3M580 127.6l18.2-7.4M566.5 169l58.2-35.7M578 171l46-28.6M584 174.2l40.6-23.7M590 179.6l26-19.7M635.4 258.6L624.6 291M642.8 260L632 294.2M637.4 329.5l-1.4 18.2M644.8 337.6v9.4M634 409l13-3.3M356.5 233.6l1.4 8M400.4 112.4l6-6.5M411.2 108.7l8-10.8M420 106.6l7.4-9.4M430.7 103.2l2.7-3.3M467.4 77.6l-5.6 8.8M481.3 75.4l-5.6 8M497 63.4L493.5 75M505 64l-3.3 11.6M513 69.5L510 83M524 68.2l-7.5 17.5M534.7 72.5L525 84.7M534.4 77v14.6M528 94L548.3 70M535.4 98.5l15-22.2M547 98l12-18.4M570.5 80.3l-17.3 26.3M574 83.7l-6.2 12M582.7 85.7L578 97.2M588 90l-3.3 10M447.7 109.3l41.5-28M466.4 104.4L495 86M474.2 108L497 96M488.3 107.7L504 99M494.5 109l11.6-6M495 112v-.6M430 225l1.5 10.4M407 262.7l3.4 1.7M585 268l-21.2 39.5M589.5 267.7l-20 46M597.8 269l-19 47.6M603.2 279.7l-15 38.6M603.2 292.2l-4.2 14.5M589 369l3.8 4.4M587 380l4 4.2M602 378.4l5-15.8 12-5M328.7 455.5l12.5 4M336.6 454l10 3.6M344 452.2l10 7.4M495.6 628.6l-4.7 6.7M509 620l-8 22M517.2 622.5l-7.4 20.2M523.3 624.5l-4 10.8M530 623.2l-2 4.7M538 622.5l-2.6 1.3M606.3 440.2l26-28M607 455l44-50M602.6 474.6l44.4-49.2M595.5 494.2l45.3-51.3M592.8 516.5l48-58.8M589.4 537.4l42.6-54M590 556.3l42.7-56.7M605.6 563l-.6 4M499.2 646l4.4-1M597 566.5l32-49.7M430.4 566.6l23-4.8M436.7 574.7l19.2-4.5M423 555.5l21-2.6M422.6 555.5l21-1.8M410.5 546.4l19.4-2M405.2 539l15.5 1M403.4 529L416 527M483 69.3l-3.4 8.6M511.7 65l-1.7 2.4M523.4 87.2l6.2-4.8M529.6 74.7l5.4-3M517 85.2l7.4-7M716.5 204l12 2M623 417.7l10.3-9.7M619.4 551.4l-.7 1.6"/>
    <path stroke-width="3.8" d="M954.7 983.7l69.6-4M953.4 979l12.8 6M946 995.2l15.5 7.4M943.2 1008l11.5 5.4M972.3 998.6l44.5-2M967.6 1013.4l39-4.7M959.4 1027l46-3.4M958.8 1046.5h21.6M991.2 909.4l34.4-7.4M991.2 921.6l33.4.3M978.4 917l15.5 7.3M1004 895.3l12.2-5.4M1012 881l17.7-5.3M1020 863.6l12.8 27.6M808.2 1029.6l33.8-12M806.2 1044.5l43.2-15.5M810.2 1063.4l32.4-15M812.3 1069l39.8-10.3M815.6 1080.3l35.8-13.5M816.3 1092.4l34.8-8M821.6 1108.6l25-4M866.3 960l18.2 30.5M865 921.6l33 65.5M884.5 909l37.8 74.7M731.2 613l22.3-2.7M739.3 621l27.7-2M748.8 636.7l39-7.5M755.5 646l47.3-11.4M761.6 654.2l47.3-6.7M786 660.3l39-4.7M759 675.2l31-17.6M811 663l41-8.8M848 669l46.6-5.3M864.2 680l67.6-8M898 692.7l61.4-12M923.7 704.2l35.7-9.5M915 740.7l25.5-32.5M919 801.4l1.3 2.7M925 785.2v11.5M935 761.6l-2.6 29.7M944.6 751.5L944 778M958.8 738.6l-1.4 19.6M675.2 753.5l21.6 16.2M709 779l-1.4 17.7M665.7 796.7l46.6 1.3M698 771.7l9-1.3M643.5 512.4l-3.4 6M646.8 517.2l-3.3 6.7M654.3 522l-6 8.7M658.3 531.3L647.5 542M664.4 535.4l-12.2 12M664.4 541.5l-6 9.4M671.8 547l-8 12M675.2 553.6l-7.4 9.5M680 561l-6.8 9.5M687.3 571.2l-7.4 9.4M711.7 598.2l19 21M723.8 603l-8.8 7.3M684 700l23 22.4M649 552.3l-6.2 36.4M636.7 599.5L609 692M604.3 702.2L563 849.4M564.5 854L534 984.5M533.4 991L509 1110.8M510.6 1108.5L499 1162M432.8 1141l8 65.5M439.5 782.5l-31 102.6M523.3 761.6l23.6 52M538 796.7l11 99.2M545 815.7l9.3 85.6M502.3 690l-8 47.3M514.5 683.3l-10 46M520 680l-4.8 35.7M526.6 679.2l-3.3 23M511 714.3l-11.4 17M517.2 710.3L503 740.7M491 697l23.5 12M489.5 706.2l23 6M482 717l26.4 14.2M476.7 731.2l25.6 4.7M461.8 737.3l-6.6 21.4M403.8 753l30.3-47.5M432.8 708.2l10-18.2 21-20M401 560.4c-4.4 13.3-7 27.2-8 41.2-1 15 .2 30 3.3 44.5M395.7 642.7c-.5 37 .2 74 2 110.8 3.3 66.2 10.3 132.3 21 197.8M414 942.5l2 38.5M234.3 769l41.2-24.3M281 737.3l37.7-25.7L341 699M345.7 698l29-38.4M102.6 699l25 47M112.8 696l35.7 31M125.6 690l34.5 32M142.5 686L164 708M154.6 679.2l20.3 21M173.5 674.5l17.3 18M191 680.6l8.2 4.7M46.6 927L27 1011.4M66.8 924.3L45.2 1021M583.4 582v3.4M591.5 572.5l-.7 7.5M598.2 570l-.7 4.6M612.4 557v2.7M416 539.4l3.3 27M426 546.2l2.7 35M439 557l2.6 32.4M447.7 561l2 37M456.4 574l4 31M467.2 582l2 18.2M428.7 545l15 32.3M446.3 559l12.7 28M328 500.3l-2.6 15.5M339.6 499.6l-5.4 20.3M348.4 499.6l-4.7 22.3M360 498.3l-5.5 24.3M368.7 501.6l-4.8 23M380.8 501l-7.4 28.3M389.6 505l-6.8 24.3M395.7 516.5l-5.4 14.2M404.4 514l-4.7 18M420 516.5l-9.5 21M433.5 514l-14.2 31M445.6 509l-14.8 28.4M453.7 507.7l-17.5 31M459.8 512L445 543M468.6 510.4l-8.8 16.2M476.7 512L472 519M486 513l-2.6 5.5M457 532l-2.6 11.5M466 539l-6.2 17.3M474.7 543l-5.4 11.3M482.8 549.6l-5.4 10.8M376.8 516.5l24.3-17M391 514l24.2-18.4M404.4 511l29-18M418.6 509.7l14.2-10M441.6 489l1.3 8M524.6 473.3l-9.4 15.5M540.2 464.5l-6 15M549 457.7l-2 15.6M560.4 447.6l-4.7 22.3M564.5 445l-1.4 15M569.2 441.5l-1.4 4M583.4 397l11.4 17.2 13 7 18.5-5M318 401.7l9.5-4M322.7 398.3l-2 6.8M382.8 397l10.2 8M628 333.5l8.7-8.8M629.3 340.3L634 329M632.7 342.3l6-4.7M634 329l9.5 14.6M407.8 258.6l7.4-4.8M414.6 262.6l8.7-8M420.6 264.6l8.8-6M337.6 266.7l10.8-2M343.7 266l-15.6 8 7 2M338.3 267.3l2 7.5M345 264.6l-.7 4.8M416.6 254.5l43.2 9.5M405 264l8.2-11.5M401 254.5l8.2 1.4M324.8 239.7l-1.4 16.8M322 233l11 12.7M330.8 231.6l8 12M334.2 229.5l10.8 13M341 229.5l14.8 13.5M345.7 229l-3.4 18M349.7 243l4-10.8 2 10.8M380.7 222.5l17.7 11M387 220l16 11.6M401.7 218.7l6 13M411.2 221l6.7 9.2M422 227l4 6M418 218.7l14 13M425.4 228.2l12.8 4.7M432 226.2l15.7 2.7M445.6 231.6l15.6 8M439 229l4 6M347.7 391l19 10 18.8-2M581.3 308l-3.3 13.4M592 293.7l-4.6 22.3M598.2 291.6l2 14.2M625.2 284.2l-12 21M633.3 283.5l-10.8 15M620.5 144l25 2.5M623.2 154.6l22.3 4M630.6 162.7l19 .7M637.4 172l13.5 2M646.2 181h6.7M676.4 212.6L678 287M684.6 219.4l-.6 66.8M691 231l.7 76.2M701.7 238V320M683.3 293L696 309M694 308l4.8 20M700.2 332.2l-6 24.3M669.8 396.3l21-32.4M690 370l23.4-21.6M688.7 378l21-20.2M693.2 360l25.6-26.5M703 335.5l19.8-21.4M700.2 332.2l12.3-1.4M653.6 404.4L642 447.6M387.6 580l10-32.5M646.2 526l15.5 22.2M391.6 219.4l4.7 16.2M337 347l4.6-3.4M331.5 339l-1.3 8M326 330l-.6 13M320 325.4l-1.3 8M457.8 107.3l14.8-4.7M473.3 106.6l12.8-6M483.4 108.7l8-3.4M236.7 788.4l27.8 44.7M335 393.6l8.6.6M673.8 176.2l31-12.2M563 1143l30-67M592 398l-4.6 5M826.4 1122l6.7 4.6"/>
    <path stroke-width="6.3" d="M158 1078l-9.2 21 7.7 4M28.7 871l-1.5 76.4M45 818.2l1.2 142.4M57.3 762l11 192M53.6 995l27-14.8 6 37.8M82.8 1015.5l14.7-23.2 1.2 31.8M97.4 1023l9.8-25.7M110.8 994.2l-2.4 28.6M107.2 1029l23-35.4M129 997.3l-4.8 36.5M123 1034l23.2-17M249.7 665l2.4 84M269.2 660l2.4 64.5M287.4 640.4l-3.6 64.6M297.2 644l-1.2 42.7M315.4 640.4l-3.6 44M330 628.2l-1.2 24.4M344.7 608.7l-6 30.5M352 610v13.5M366.6 600.2l-2.4 12.2M156 706.2l42.5 14.6M167 689l51 26.5M199.7 689l39 18.4M188.8 668.4l59 31M213.4 657l50.7 25.3M236.3 649.6l37.3 20.3M259.4 640.2l34.2 18M280.8 631.3l29.8 11.5M297.7 627l19.6 6.7M313 622l17 8.7M325.8 616.7l21.3 6M353.2 600.2l36.5 24.4M371.5 589.3l23 11M383.6 582l11 6M386 571l12.3 5M395.8 562.5l11 3.6M394.6 550.3l7.3 2.4M92.6 710l24.3 31.5M90 716l6.2 20.6 11 80.4M290 706.2l17 16.6M303.8 703.6l17.7 8.5M321.5 693l13.4 8.3M333.7 683l14.6 10M346 669.6l11 11M326.4 634.3l43.8 36.6M342.2 627l19.5 19.5M354.4 619.7l22.5 9.7M377.8 579.5l8.3 8.5M81.6 928l-18.3 98.5M97.4 959.5l-16.3 74M115.7 948.5L98.5 1039M124.2 979l-2.4 91.3M131.5 974l6 91.5M414 875.5l37.8-7.3M417.7 861l42.7-8.7M419.8 836.5l56.4 3.7M428 815.2l42 3.7M431.6 797.5l48.3 5M455.3 806.3l25-23.3M493.3 769.5l28-11.2M487.2 749.4l27.3-11.5M461.6 677l17-17M492 790.2l42.7-14.6M533.5 758.6l-24.4 22M532.2 774.4l-8.5 35.3M512.7 746.4l1.3 28M498 820.7l46.4-19.5M482.3 852.3l66-31.2M495.7 868.2l67-36.6M488.7 886.3l66.8-29.2M484.6 904l70.8-29.7M493.3 922l59-26M494.5 913.2l34-1.2M863.5 857.2l22 17M891.5 876.7l44 95M913.4 868.2L957 961M931.7 844l37.8 104.5M955 852.3l30.3 79.2M974.3 851l23.2 53.7M715 723.2l37.7 37.8M661.3 646.5l91.4 42.6M645.4 618.4l97 51.3M649.3 598.3l84 51.5M663 592.4l69 39.4M655.4 570l59.5 41.5M655.4 548.5l47.4 47.5M646.8 652.7l93.8 46.5M652 671.7l58 32.3M697.6 697.5l-1 26.7M705.3 703.5l3.5 33.6M720.8 615l44.8 74M753.6 637.2l10.3-7M760.4 661.3l22.4-20.6M763 685.4l38-34.4M761.3 708.7l59.4-52.5M777.7 719l64.6-56M813.8 724.2l62-49M832.8 735.4l59.4-45.6M844.8 747.5l57-46.6M861.2 752.6l55-38M668.3 761.2l-2.6 43.5M669.2 773.3l14.6 1M521 712l22.4-22.2M523 669.4l52.3 43.6c6.4 5.5 12.6 11.5 16.3 19M485 656.2l18.8 6M646 410l37-20.8M696.7 325.5l13.8-3.5M658.8 150.6l26 13.8M681.2 164.4l16-7.6-12.5 18 15.5-4.5M539 80l2.7 13M549.4 87v13.7M558 103.3l8.7-6v7.7M615 292l21.4-1.8M455.6 484l5 9.4M472.8 479l4.3 15.3M485 478l11.3 17M500 474.2l7.3 14M514 465l12.8 18.3M529.2 459l5 13.3M541.4 453l8.5 12.6M553 442.5l9.7 7.3M570.6 436l6 4M576.7 419l7.3 2.2M582.8 409l8.5 4.3M582.8 398l3 .7M330 514.4l4.3-3M343 521l16.6-12.8M361 518.6l19-9M466 708.6l22.4-9.7M283.8 683l18.7 4.6M308 667.2l12.3 5M320.3 651.4l17 12.2M979 934.4l44.6-1.3M975 952l49-2M956.7 972.2l73.6-4M106.7 765l17.5 25M480.7 753l27 34.2M488.8 779l11.5 23.8M484.8 738l10 24.3M474 661l-4.8 67.5M974.3 821l-15.5 42.5M983.8 836l-13 30.2M991.2 851.4l-11.5 25M996.6 863.5l-4 23.7M981 850l25-12.8M978.4 828.4l25.6-14.8M976.3 809.5l22.3-6M987 790l23-4.8M989.8 722.4l18.3 17M988.5 741.3l19 11.5M994 760.2l14 4.8M996.6 775l17.5 6M994 786.6l16.8 7.4M998.6 810.2l10 5.4M998.6 823.7l10 4.7M998.6 833.2l11.5 6M1002 848.7l4.7 2.7M878.4 858l52-14.7M882.5 842.6l51.3-16.2M886 826.4l63.3-25M895.3 803l107.4-32.6M902 784.5l102.7-31.7M909.5 757.5l93.8-26.3M917 742.7l77.6-20.3M929.7 720.4l71-13.5M941.2 695.4l40-2.7M916.2 717.7l17-10.8M400.4 560.4l6.7-2.7M341.6 332.2l3.4-.7M343.7 337.6l13.5-5.4M353 339.6l6.2-5.4M412 255.2l10 4.7M693.3 307l-.5-19M493 666.4l28.5 31.2M511.8 661.2l19.7 25.7"/>
    <path stroke-width="10" d="M455.7 679l30.8-21.5M465 732l21.7 12.4M454 750l23.5 10.4M446.7 766l41 11.5M437.6 780L466 783M459.3 686l44.3-23.5M332.4 1011.7l62.5 144M368 682.7l24-20M370.7 660.7l24-22.8M369.5 640l24-19.3M374 620l19.3-22M382.7 592.4l15-14.8M168 926l16 139.4M195.4 926l9 153M218.2 931.7l10.3 153M238.8 947.7l19 158.7M260.5 947.7l27.2 178.5M283.3 966l37 172M309.6 968.3l35 183M334.7 1014L369 1144M83.4 814l-25 42.3M100.5 831.2l-25 42.3M115.4 856.3L85.7 885M123.4 866.6l-19.4 25M131.4 888.3l-11.4 16M104 815.2l50.2 154.2M142.8 946.6l22.5 83.4M120 879.2l16 125.6M104 857.5l4.5 114.2M92.5 902l-10.2 57M226.2 712.4l20 49.7M242.5 709l17.8 40.4M260.5 705.5l17 34.3M267.3 697.5l26.3 27.4M97 742l9.2 115.5M128 722.7l53.6 141.6M149.7 717L208 895M170.2 725l50.3 140.5M189.6 722.7l57.2 144M206.8 712.4l41 110.8M221.6 865.5l23 93.6M237.6 849.5l31 109.6M254.8 839.2l30.8 137M258.2 822l129-89M266.2 834.6L377 760.4M273 856.3l95-73M285.6 867.7L376 798M297 891.7l101-86.5M306.2 916.6l86.6-81.2M316.5 938.6l74.2-67.4M326.7 959l68.6-70.7M336 977.4l68.4-75.4M337.2 1006.6l67-82.4M345.4 1026.4l61.3-78M339 1059.7l70-86.8M355.3 1057.4l58.3-66.3M367.2 1072l49-59.4M368 1088l50.3-55M378 1111l51.6-59.3M389.6 1119l33-41M390.7 1141l33-35.6M392 1163.6l35.3-37.7M413.6 1171.6l26.2-27.4M425.4 1192l19-23.8M436 1041l77.4-5.3M262 792.6l124.4-82.2M360.5 785.3l31.7-48.7M364.2 747.6l25.3-55M433.6 1020.4l87.7-8.5M426.3 1002l108.4-12M423.8 981.4L531 973M421.4 963.2l112-12.2M422.6 939l117-3.8M414.2 917l77.8-7.4M409.2 893.7L486 890M450.6 887.7l52.4-13.4M455.5 870.6l51.7-7.4M461.6 855l43.4-5M464 833l48.7-3.8M467.7 811l36.5 2.4M471.3 796.3l24.4 2.4M475 755l17-11M486 769.5l12-8.5M462.8 706.2l31.7-23.2M464 729.3l17.3-17.6M461.4 674.2l-1 41.7M339.8 1037.5l37.8 117M509.7 1104.5l47 42.4M514 1076.4l52.3 51.2M520.8 1050.4l52.3 54.3M525 1024l54.7 53.6M531.7 1002.2l59 62.6M540.8 982.7l56 63.3M542 958.3l64.7 67M547.5 920.6l70.8 82.6M553 901l76.6 75M561.5 873l72.6 86M562 848l81 90.8M569.4 823l84 91M577.7 796l96 99.7M587 770l97.4 103.5M595.6 746.4l103 103M600.4 717l108.4 116.5M694.2 789l29.2 36.5M711.3 773.2l25.5 24.3M760 772l-84 125.4M644 671.7l101.4 107M718.6 719.6l34-19.5M258.2 770.2l127.2-80.5M120.6 986.3l43.8-18.3M125.4 1008.2l40.2-46.3M691.8 907L593 1092.4M652.8 987.5L609.4 1126M689.3 909.6l-61 194.8M718.6 876.7L665 1085M752.7 880.3L683.3 1091M778.3 883l-70.7 202M801.4 887.7L735.6 1079M818.4 900l-54.8 179M840.4 913.2l-47.5 151M819.7 982.7L872 1007M803.8 1012l53.6 14.5M794 1047.2l44 3.7M825.8 939l45 51M836.7 908.4l30.5 52.3M844 885.2l33 36.6M844 856l36.6 34M896.4 908.4l-14.6 50M919.5 901l-18.2 49M936.6 895l-15.8 33M951.2 892.5l-17 30.5M964.6 890l-9.6 21M983 895l-18.4 22M880.6 1058.2l20.7 2.6M886.6 1033.7l29.2 10.4M908.6 1014.3l29.2 20.7M867.2 1082.5l12-5M1025.5 896.2l-13.4 29.2M975.6 930.3l43.8-16M967 950l36.6-10M955 970.5l43.7-11M646.7 560l14.6 8.6M648 546.6l15.8 7.3M646.7 531l8.5 1M733.2 610l-5 17M745.4 619.7l-14.6 36.5M752.7 639.2l-7.3 23M766 649l-13.3 37.7M718.6 713.5l-5 9.7M741.7 706.2l-12.2 33M775.8 671l-36.5 70.5M793 668.4l-33 82.8M800.2 688l-36.6 90M828.2 691.6L782 795M850 702.5l-42.5 95M861 721l-36.4 91M875.7 728L839 823M897.6 732l-39 87.4M909.8 746.4l-42.6 90M896.4 769.5l-15.8 61M875.7 789l-39 136.4M856.2 780.5l-45 160.7M841.6 778l-44 150M813.6 768.3L773.4 928M793 767l-30.7 150M771 747.6l-38 176.6M697.7 348l8.7-8.4M688 371l12.3-7M682 382l14.8-2.4M673 394.2l17.5-2M647.5 422.4L680 420M644.2 438.2l28.3-9.4M641.8 450.4l22-6M641.8 462.6l14.7-6M120 1002l38.8 2.7M162.7 997.7L129 1035M131.5 1030H157l-20.6 24.5M140 1052l16 1.3-18.4 23 16 1.3M635.8 1086.2l-7.4 84M676 1049.6l-8.6 79.2M716 1014.3l-9.6 72M744.2 1008.2l-18.3 73M773.4 999.7l-17 65.8M808.7 991.2L794 1062M836.7 970.5l-22 90M861 950l-2.4 59.4M842.8 947.3l2.4 73M117 746.4l54.7 147.3M271.6 896.2l18.3-22M280 924.2l20.8-17M288.6 950l20.8-23.4M299.6 973l17-24.5M413 986.3l24 193.6M73 717.7l17 226M653 551.6l8.7 81.7M668.4 576l2 27.6M644 578.6l-5.3 86.4M116 789.3L155.4 900M492 1225.4l2-4.6M488.7 671l-19.2 47.3"/>
    <path stroke-width="16.3" d="M145 881.5l35.5 82.2M170.2 869l55 123.3M193 856.3l64 152M234.2 858.6l68.5 134.8M265 844l71 159.7M372.4 695.2l19-.6M362.2 724l31.4-6M365.6 738.7l30-3.3M368 764l28.4 2M366.7 790h32.8M374.4 821.7l26.6-2M379.3 849.5l25 2.3M382.7 878l29.7 4.6M389.6 905.4L418 918M398.7 943l21.7 8M403.3 982l10.3 4.6M507 1171.6l23 19.5M514 1155.2l25 16.7M516 1138l34.8 26.2M902.5 862l-3.4 19.5M917.4 834.6l1 42.3M935.7 828l6.8 27.2M950.5 804l4.6 30.6M965.4 794.6l6.8 19.5M978 783.2l2.2 9M618 1101l9.2 70.6M643.2 1066.5l27.4 76.6M677.5 1031l28.5 87M700.3 1007l19.4 79M714 986.6l24 98.2M735.7 974l26.3 143M761 974l33 130.2M789.4 982l17.3 107.4M818 1005l14.8 62.7M844.3 1011.7l-7 30.8M861.4 998l-9 57M885.4 984.3l-12.6 56M904.8 976.3L898 1022M916.2 968.3l-3.4 38.8M943.6 966L931 996M798.6 875.7l-5.8 68.6M828.3 885l-8 66M839.7 905.4l1 52.6M863.7 917l2.3 36.4M845.4 881.5l40 26.2M636.3 630l35.4 27.5M637.5 602.7l45.7 28.6M643.2 580l16 12.4M668.3 909l-61.7 141.5-34.2 81.2M685.5 879.2l-5.8 41M713 842.6l-9.3 49M735.7 800.3l-6.8 48M885.4 826.6l-31 83.4M502.6 1201l7.7 5.7M995 945l-59.6 118M454.3 1120.3l18.3 7.3M439.7 1087.4l58.4 5M441 1062l67 6M104.7 925.4l-12 45M129.7 950.2l-9 23M612 690.4l54.2 64.5M622.4 666l61 81M627.2 645.3l36.6 33M652.7 407l30.5-1.4"/>
  </g>
</svg>
